{"accessors":[{"bufferView":0,"componentType":5126,"count":87531,"min":[-2.4753217697143556,-1.039292335510254,-24.117769241333009],"max":[2.4761087894439699,9.478660583496094,13.561310768127442],"type":"VEC3","name":"x0_FUSELAGE.015_vertices#0_POSITION"},{"bufferView":0,"byteOffset":12,"componentType":5120,"count":87531,"type":"VEC4","name":"x0_FUSELAGE.015_vertices#0_TANGENT"},{"bufferView":0,"byteOffset":16,"componentType":5120,"count":87531,"type":"VEC4","name":"x0_FUSELAGE.015_vertices#0_NORMAL"},{"bufferView":0,"byteOffset":20,"componentType":5122,"count":87531,"type":"VEC2","name":"x0_FUSELAGE.015_vertices#0_TEXCOORD_0"},{"bufferView":0,"byteOffset":24,"componentType":5122,"count":87531,"type":"VEC2","name":"x0_FUSELAGE.015_vertices#0_TEXCOORD_1"},{"bufferView":0,"byteOffset":28,"componentType":5123,"count":87531,"type":"VEC4","name":"x0_FUSELAGE.015_vertices#0_COLOR_0"},{"bufferView":1,"componentType":5123,"count":282318,"type":"SCALAR","name":"x0_FUSELAGE.015_indices#1"},{"bufferView":0,"byteOffset":3151116,"componentType":5126,"count":2668,"min":[-1.9807761907577515,1.7262239456176758,-14.16510009765625],"max":[1.980783462524414,2.151075839996338,7.474673748016357],"type":"VEC3","name":"x0_FUSELAGE.017_vertices#0_POSITION"},{"bufferView":0,"byteOffset":3151128,"componentType":5120,"count":2668,"type":"VEC4","name":"x0_FUSELAGE.017_vertices#0_TANGENT"},{"bufferView":0,"byteOffset":3151132,"componentType":5120,"count":2668,"type":"VEC4","name":"x0_FUSELAGE.017_vertices#0_NORMAL"},{"bufferView":0,"byteOffset":3151136,"componentType":5122,"count":2668,"type":"VEC2","name":"x0_FUSELAGE.017_vertices#0_TEXCOORD_0"},{"bufferView":0,"byteOffset":3151140,"componentType":5122,"count":2668,"type":"VEC2","name":"x0_FUSELAGE.017_vertices#0_TEXCOORD_1"},{"bufferView":0,"byteOffset":3151144,"componentType":5123,"count":2668,"type":"VEC4","name":"x0_FUSELAGE.017_vertices#0_COLOR_0"},{"bufferView":1,"byteOffset":564636,"componentType":5123,"count":7377,"type":"SCALAR","name":"x0_FUSELAGE.017_indices#0"},{"bufferView":0,"byteOffset":3247164,"componentType":5126,"count":55366,"min":[-0.7082005739212036,-0.8027129769325256,-22.744308471679689],"max":[3.194678783416748,2.9524142742156984,3.923025608062744],"type":"VEC3","name":"x0_INTERIOR_vertices#0_POSITION"},{"bufferView":0,"byteOffset":3247176,"componentType":5120,"count":55366,"type":"VEC4","name":"x0_INTERIOR_vertices#0_TANGENT"},{"bufferView":0,"byteOffset":3247180,"componentType":5120,"count":55366,"type":"VEC4","name":"x0_INTERIOR_vertices#0_NORMAL"},{"bufferView":0,"byteOffset":3247184,"componentType":5122,"count":55366,"type":"VEC2","name":"x0_INTERIOR_vertices#0_TEXCOORD_0"},{"bufferView":0,"byteOffset":3247188,"componentType":5122,"count":55366,"type":"VEC2","name":"x0_INTERIOR_vertices#0_TEXCOORD_1"},{"bufferView":0,"byteOffset":3247192,"componentType":5123,"count":55366,"type":"VEC4","name":"x0_INTERIOR_vertices#0_COLOR_0"},{"bufferView":1,"byteOffset":579390,"componentType":5123,"count":151347,"type":"SCALAR","name":"x0_INTERIOR_indices#3"}],"asset":{"generator":"Khronos glTF Blender I/O v4.2.57 and Asobo Studio MSFS Blender I/O v2.2.13","copyright":"Igor","version":"2.0","extensions":{"ASOBO_asset_optimized":{"BoundingBoxMax":[3.194678783416748,9.478660583496094,13.561310768127442],"BoundingBoxMin":[-2.4753217697143556,-1.039292335510254,-24.117769241333009],"MajorVersion":4,"MinorVersion":4,"UseCheckerboardMaterialForMissingTextures":true,"UseOnlyFilenameForImageURI":true},"ASOBO_normal_map_convention":{"tangent_space_convention":"DirectX"}}},"bufferViews":[{"buffer":0,"byteLength":5240340,"byteStride":36,"target":34962,"name":"BufferViewVertexND"},{"buffer":0,"byteLength":882084,"byteOffset":5240340,"target":34963,"name":"BufferViewIndex"}],"extensionsRequired":["MSFT_texture_dds"],"materials":[{"name":"FUSELAGE","normalTexture":{"index":0},"occlusionTexture":{"index":1},"pbrMetallicRoughness":{"baseColorTexture":{"index":2},"metallicRoughnessTexture":{"index":1}}},{"name":"A320_Glass","alphaMode":"BLEND","pbrMetallicRoughness":{"baseColorFactor":[1.0,1.0,1.0,0.009999999776482582],"metallicFactor":0.0,"roughnessFactor":0.0,"baseColorTexture":{"index":4}},"extensions":{"ASOBO_material_detail_map":{"UVScale":15.0,"blendThreshold":0.10000000149011612,"detailColorTexture":{"index":3}}},"extras":{"ASOBO_material_code":"Windshield"}},{"name":"Cargo_Door","normalTexture":{"index":5},"occlusionTexture":{"index":6},"pbrMetallicRoughness":{"baseColorTexture":{"index":7},"metallicRoughnessTexture":{"index":6}}},{"name":"Passenger_Door","normalTexture":{"index":8},"occlusionTexture":{"index":9},"pbrMetallicRoughness":{"baseColorTexture":{"index":10},"metallicRoughnessTexture":{"index":9}}},{"name":"Cargo_Soute","normalTexture":{"index":11},"occlusionTexture":{"index":12},"pbrMetallicRoughness":{"baseColorTexture":{"index":13},"metallicRoughnessTexture":{"index":12}}},{"name":"rivets","alphaMode":"BLEND","normalTexture":{"index":14},"occlusionTexture":{"index":15},"pbrMetallicRoughness":{"baseColorTexture":{"index":16},"metallicRoughnessTexture":{"index":15}},"extensions":{"ASOBO_material_blend_gbuffer":{}}}],"meshes":[{"primitives":[{"attributes":{"COLOR_0":5,"NORMAL":2,"POSITION":0,"TANGENT":1,"TEXCOORD_0":3,"TEXCOORD_1":4},"indices":6,"material":0,"mode":4,"extras":{"ASOBO_primitive":{"PrimitiveCount":73287,"VertexType":"VTX","VertexVersion":2}}},{"attributes":{"COLOR_0":5,"NORMAL":2,"POSITION":0,"TANGENT":1,"TEXCOORD_0":3,"TEXCOORD_1":4},"indices":6,"material":0,"mode":4,"extras":{"ASOBO_primitive":{"BaseVertexIndex":65530,"PrimitiveCount":20819,"StartIndex":219861,"VertexType":"VTX","VertexVersion":2}}}],"name":"x0_FUSELAGE.015"},{"primitives":[{"attributes":{"COLOR_0":12,"NORMAL":9,"POSITION":7,"TANGENT":8,"TEXCOORD_0":10,"TEXCOORD_1":11},"indices":13,"material":1,"mode":4,"extras":{"ASOBO_primitive":{"PrimitiveCount":2459,"VertexType":"VTX","VertexVersion":2}}}],"name":"x0_FUSELAGE.017"},{"primitives":[{"attributes":{"COLOR_0":19,"NORMAL":16,"POSITION":14,"TANGENT":15,"TEXCOORD_0":17,"TEXCOORD_1":18},"indices":20,"material":2,"mode":4,"extras":{"ASOBO_primitive":{"PrimitiveCount":19720,"VertexType":"VTX","VertexVersion":2}}},{"attributes":{"COLOR_0":19,"NORMAL":16,"POSITION":14,"TANGENT":15,"TEXCOORD_0":17,"TEXCOORD_1":18},"indices":20,"material":3,"mode":4,"extras":{"ASOBO_primitive":{"PrimitiveCount":27935,"StartIndex":59160,"VertexType":"VTX","VertexVersion":2}}},{"attributes":{"COLOR_0":19,"NORMAL":16,"POSITION":14,"TANGENT":15,"TEXCOORD_0":17,"TEXCOORD_1":18},"indices":20,"material":4,"mode":4,"extras":{"ASOBO_primitive":{"PrimitiveCount":986,"StartIndex":142965,"VertexType":"VTX","VertexVersion":2}}},{"attributes":{"COLOR_0":19,"NORMAL":16,"POSITION":14,"TANGENT":15,"TEXCOORD_0":17,"TEXCOORD_1":18},"indices":20,"material":5,"mode":4,"extras":{"ASOBO_primitive":{"PrimitiveCount":1808,"StartIndex":145923,"VertexType":"VTX","VertexVersion":2}}}],"name":"x0_INTERIOR"}],"nodes":[{"mesh":0,"name":"FUSELAGE"},{"mesh":1,"name":"Glass_Ext"},{"translation":[-1.2289795875549317,0.20381778478622437,5.497644424438477],"mesh":2,"name":"INTERIOR"}],"scene":0,"scenes":[{"nodes":[0,1,2],"name":"Scene"}],"textures":[{"extensions":{"MSFT_texture_dds":{"source":0}}},{"extensions":{"MSFT_texture_dds":{"source":1}}},{"extensions":{"MSFT_texture_dds":{"source":2}}},{"extensions":{"MSFT_texture_dds":{"source":3}}},{"extensions":{"MSFT_texture_dds":{"source":4}}},{"extensions":{"MSFT_texture_dds":{"source":5}}},{"extensions":{"MSFT_texture_dds":{"source":6}}},{"extensions":{"MSFT_texture_dds":{"source":7}}},{"extensions":{"MSFT_texture_dds":{"source":8}}},{"extensions":{"MSFT_texture_dds":{"source":9}}},{"extensions":{"MSFT_texture_dds":{"source":10}}},{"extensions":{"MSFT_texture_dds":{"source":11}}},{"extensions":{"MSFT_texture_dds":{"source":12}}},{"extensions":{"MSFT_texture_dds":{"source":13}}},{"extensions":{"MSFT_texture_dds":{"source":14}}},{"extensions":{"MSFT_texture_dds":{"source":15}}},{"extensions":{"MSFT_texture_dds":{"source":16}}}],"samplers":[{"magFilter":9729,"minFilter":9987,"wrapS":10497,"wrapT":10497}],"extensionsUsed":["ASOBO_normal_map_convention","ASOBO_material_detail_map","ASOBO_material_windshield","ASOBO_material_blend_gbuffer","MSFT_texture_dds","ASOBO_asset_optimized"],"buffers":[{"byteLength":6122424,"uri":"fuselage.bin"}],"images":[{"uri":"A320NEO_AIRFRAME_FUSELAGE_NORM.PNG.DDS","name":"A320NEO_AIRFRAME_FUSELAGE_NORM","extras":"ASOBO_image_converted_meta"},{"uri":"A320NEO_AIRFRAME_FUSELAGE_COMP.PNG.DDS","name":"A320NEO_AIRFRAME_FUSELAGE_COMP","extras":"ASOBO_image_converted_meta"},{"uri":"A320NEO_AIRFRAME_FUSELAGE_ALBD.PNG.DDS","name":"A320NEO_AIRFRAME_FUSELAGE_ALBD","extras":"ASOBO_image_converted_meta"},{"uri":"GLASS_DETAIL.PNG.DDS","name":"GLASS_DETAIL","extras":"ASOBO_image_converted_meta"},{"uri":"A320_COCKPIT_WINDOWS_ALBD.PNG.DDS","name":"A320_COCKPIT_WINDOWS_ALBD","extras":"ASOBO_image_converted_meta"},{"uri":"CARGO_DOOR_NORM.PNG.DDS","name":"CARGO_DOOR_NORM","extras":"ASOBO_image_converted_meta"},{"uri":"CARGO_DOOR_COMP.PNG.DDS","name":"CARGO_DOOR_COMP","extras":"ASOBO_image_converted_meta"},{"uri":"CARGO_DOOR_ALBD.PNG.DDS","name":"CARGO_DOOR_ALBD","extras":"ASOBO_image_converted_meta"},{"uri":"PASSENGER_DOOR_NORM.PNG.DDS","name":"PASSENGER_DOOR_NORM","extras":"ASOBO_image_converted_meta"},{"uri":"PASSENGER_DOOR_COMP.PNG.DDS","name":"PASSENGER_DOOR_COMP","extras":"ASOBO_image_converted_meta"},{"uri":"PASSENGER_DOOR_ALBD.PNG.DDS","name":"PASSENGER_DOOR_ALBD","extras":"ASOBO_image_converted_meta"},{"uri":"CARGO_SOUTE_NORM.PNG.DDS","name":"CARGO_SOUTE_NORM","extras":"ASOBO_image_converted_meta"},{"uri":"CARGO_SOUTE_COMP.PNG.DDS","name":"CARGO_SOUTE_COMP","extras":"ASOBO_image_converted_meta"},{"uri":"CARGO_SOUTE_ALBD.PNG.DDS","name":"CARGO_SOUTE_ALBD","extras":"ASOBO_image_converted_meta"},{"uri":"RIVETS_NORM.PNG.DDS","name":"RIVETS_NORM","extras":"ASOBO_image_converted_meta"},{"uri":"RIVETS_COMP.PNG.DDS","name":"RIVETS_COMP","extras":"ASOBO_image_converted_meta"},{"uri":"RIVETS_ALBD.PNG.DDS","name":"RIVETS_ALBD","extras":"ASOBO_image_converted_meta"}]}
