{"asset":{"version":"2.0","generator":"babylon.js glTF exporter for 3dsmax 2021 v1.0.7916.20785","extensions":{"ASOBO_normal_map_convention":{"tangent_space_convention":"DirectX"}}},"extensionsUsed":["ASOBO_normal_map_convention","ASOBO_material_detail_map","ASOBO_material_windshield"],"scene":0,"scenes":[{"nodes":[0,1,2,3,4,5,6,7,8,9,10,11]}],"nodes":[{"mesh":0,"translation":[-1.12439125E-09,2.82230186,-3.479583],"rotation":[1.3014069E-10,-0.9999985,-0.00172376563,-7.54977947E-08],"scale":[1.0,0.99999994,0.99999994],"name":"SALON_A320_4"},{"mesh":1,"translation":[-1.91986525,2.04456687,-14.0649691],"rotation":[-0.500863254,-0.5008632,0.499135435,-0.499135226],"scale":[1.00000012,0.99999994,1.0],"name":"Glasses"},{"mesh":2,"translation":[-1.85168815,1.98338318,-14.0215044],"rotation":[0.00172966416,-7.547136E-06,-0.00436330633,0.999989],"name":"HublotsAll_5"},{"mesh":3,"translation":[-1.12439125E-09,2.82230186,-3.479583],"rotation":[1.3014069E-10,-0.9999985,-0.00172376563,-7.54977947E-08],"scale":[1.0,0.99999994,0.99999994],"name":"SALON_A320_1"},{"mesh":4,"translation":[-1.12439125E-09,2.82230186,-3.479583],"rotation":[1.3014069E-10,-0.9999985,-0.00172376563,-7.54977947E-08],"scale":[1.0,0.99999994,0.99999994],"name":"SALON_A320_3"},{"mesh":5,"translation":[-1.85168815,1.98338318,-14.0215044],"rotation":[0.00172966393,-7.54713574E-06,-0.004363307,0.999989],"name":"HublotsAll_0"},{"mesh":6,"translation":[-1.85168815,1.98338318,-14.0215044],"rotation":[0.00172966393,-7.54713574E-06,-0.004363307,0.999989],"name":"HublotsAll_1"},{"mesh":7,"translation":[-1.85168815,1.98338318,-14.0215044],"rotation":[0.00172966393,-7.54713574E-06,-0.004363307,0.999989],"name":"HublotsAll_2"},{"mesh":8,"translation":[-1.85168815,1.98338318,-14.0215044],"rotation":[0.00172966393,-7.54713574E-06,-0.004363307,0.999989],"name":"HublotsAll_3"},{"mesh":9,"translation":[-1.85168815,1.98338318,-14.0215044],"rotation":[0.00172966393,-7.54713574E-06,-0.004363307,0.999989],"name":"HublotsAll_4"},{"mesh":10,"translation":[-1.12439125E-09,2.82230186,-3.479583],"rotation":[1.3014069E-10,-0.9999985,-0.00172376563,-7.54977947E-08],"scale":[1.0,0.99999994,0.99999994],"name":"SALON_A320_0"},{"mesh":11,"translation":[-1.12439125E-09,2.82230186,-3.479583],"rotation":[1.3014069E-10,-0.9999985,-0.00172376563,-7.54977947E-08],"scale":[1.0,0.99999994,0.99999994],"name":"SALON_A320_2"}],"meshes":[{"primitives":[{"attributes":{"POSITION":1,"NORMAL":2,"TEXCOORD_0":3},"indices":0,"mode":4,"material":0}],"name":"SALON_A320_4"},{"primitives":[{"attributes":{"POSITION":5,"NORMAL":6,"TEXCOORD_0":7},"indices":4,"mode":4,"material":1}],"name":"Glasses"},{"primitives":[{"attributes":{"POSITION":9,"NORMAL":10,"COLOR_0":11,"TEXCOORD_0":12,"TEXCOORD_1":13},"indices":8,"mode":4,"material":2}],"name":"HublotsAll_5"},{"primitives":[{"attributes":{"POSITION":15,"NORMAL":16,"TEXCOORD_0":17},"indices":14,"mode":4,"material":0}],"name":"SALON_A320_1"},{"primitives":[{"attributes":{"POSITION":19,"NORMAL":20,"TEXCOORD_0":21},"indices":18,"mode":4,"material":0}],"name":"SALON_A320_3"},{"primitives":[{"attributes":{"POSITION":23,"NORMAL":24,"COLOR_0":25,"TEXCOORD_0":26,"TEXCOORD_1":27},"indices":22,"mode":4,"material":2}],"name":"HublotsAll_0"},{"primitives":[{"attributes":{"POSITION":29,"NORMAL":30,"COLOR_0":31,"TEXCOORD_0":32,"TEXCOORD_1":33},"indices":28,"mode":4,"material":2}],"name":"HublotsAll_1"},{"primitives":[{"attributes":{"POSITION":35,"NORMAL":36,"COLOR_0":37,"TEXCOORD_0":38,"TEXCOORD_1":39},"indices":34,"mode":4,"material":2}],"name":"HublotsAll_2"},{"primitives":[{"attributes":{"POSITION":41,"NORMAL":42,"COLOR_0":43,"TEXCOORD_0":44,"TEXCOORD_1":45},"indices":40,"mode":4,"material":2}],"name":"HublotsAll_3"},{"primitives":[{"attributes":{"POSITION":47,"NORMAL":48,"COLOR_0":49,"TEXCOORD_0":50,"TEXCOORD_1":51},"indices":46,"mode":4,"material":2}],"name":"HublotsAll_4"},{"primitives":[{"attributes":{"POSITION":53,"NORMAL":54,"TEXCOORD_0":55},"indices":52,"mode":4,"material":0}],"name":"SALON_A320_0"},{"primitives":[{"attributes":{"POSITION":57,"NORMAL":58,"TEXCOORD_0":59},"indices":56,"mode":4,"material":0}],"name":"SALON_A320_2"}],"accessors":[{"bufferView":0,"componentType":5123,"count":119724,"type":"SCALAR","name":"accessorIndices"},{"bufferView":1,"componentType":5126,"count":52311,"max":[1.90728557,0.5186851,13.88904],"min":[-1.90728557,-1.82816231,6.036812],"type":"VEC3","name":"accessorPositions"},{"bufferView":1,"byteOffset":627732,"componentType":5126,"count":52311,"type":"VEC3","name":"accessorNormals"},{"bufferView":2,"componentType":5126,"count":52311,"type":"VEC2","name":"accessorUVs"},{"bufferView":0,"byteOffset":239448,"componentType":5123,"count":39360,"type":"SCALAR","name":"accessorIndices"},{"bufferView":1,"byteOffset":1255464,"componentType":5126,"count":13440,"max":[0.09427451,3.8846674,0.153462738],"min":[-21.5195885,-0.044902686,-0.164651468],"type":"VEC3","name":"accessorPositions"},{"bufferView":1,"byteOffset":1416744,"componentType":5126,"count":13440,"type":"VEC3","name":"accessorNormals"},{"bufferView":2,"byteOffset":418488,"componentType":5126,"count":13440,"type":"VEC2","name":"accessorUVs"},{"bufferView":0,"byteOffset":318168,"componentType":5123,"count":140040,"type":"SCALAR","name":"accessorIndices"},{"bufferView":1,"byteOffset":1578024,"componentType":5126,"count":36050,"max":[3.81938314,0.550809,2.23363256],"min":[-0.114117958,-0.178843647,-0.192899808],"type":"VEC3","name":"accessorPositions"},{"bufferView":1,"byteOffset":2010624,"componentType":5126,"count":36050,"type":"VEC3","name":"accessorNormals"},{"bufferView":3,"componentType":5126,"count":36050,"type":"VEC4","name":"accessorColors"},{"bufferView":2,"byteOffset":526008,"componentType":5126,"count":36050,"type":"VEC2","name":"accessorUVs"},{"bufferView":2,"byteOffset":814408,"componentType":5126,"count":36050,"type":"VEC2","name":"accessorUV2s"},{"bufferView":0,"byteOffset":598248,"componentType":5123,"count":101016,"type":"SCALAR","name":"accessorIndices"},{"bufferView":1,"byteOffset":2443224,"componentType":5126,"count":42789,"max":[1.96053135,0.5786195,-1.35029507],"min":[-1.96053135,-1.82487321,-6.95018864],"type":"VEC3","name":"accessorPositions"},{"bufferView":1,"byteOffset":2956692,"componentType":5126,"count":42789,"type":"VEC3","name":"accessorNormals"},{"bufferView":2,"byteOffset":1102808,"componentType":5126,"count":42789,"type":"VEC2","name":"accessorUVs"},{"bufferView":0,"byteOffset":800280,"componentType":5123,"count":75840,"type":"SCALAR","name":"accessorIndices"},{"bufferView":1,"byteOffset":3470160,"componentType":5126,"count":31795,"max":[1.90728557,0.350044727,6.23560143],"min":[-1.90728557,-1.82487321,2.57587433],"type":"VEC3","name":"accessorPositions"},{"bufferView":1,"byteOffset":3851700,"componentType":5126,"count":31795,"type":"VEC3","name":"accessorNormals"},{"bufferView":2,"byteOffset":1445120,"componentType":5126,"count":31795,"type":"VEC2","name":"accessorUVs"},{"bufferView":0,"byteOffset":951960,"componentType":5123,"count":196056,"type":"SCALAR","name":"accessorIndices"},{"bufferView":1,"byteOffset":4233240,"componentType":5126,"count":50470,"max":[3.79549432,0.5486534,21.5308075],"min":[-0.08947473,-0.182060838,18.04365],"type":"VEC3","name":"accessorPositions"},{"bufferView":1,"byteOffset":4838880,"componentType":5126,"count":50470,"type":"VEC3","name":"accessorNormals"},{"bufferView":3,"byteOffset":576800,"componentType":5126,"count":50470,"type":"VEC4","name":"accessorColors"},{"bufferView":2,"byteOffset":1699480,"componentType":5126,"count":50470,"type":"VEC2","name":"accessorUVs"},{"bufferView":2,"byteOffset":2103240,"componentType":5126,"count":50470,"type":"VEC2","name":"accessorUV2s"},{"bufferView":0,"byteOffset":1344072,"componentType":5123,"count":196056,"type":"SCALAR","name":"accessorIndices"},{"bufferView":1,"byteOffset":5444520,"componentType":5126,"count":50470,"max":[3.80254126,0.555189133,17.8106289],"min":[-0.09679959,-0.174026147,14.3073711],"type":"VEC3","name":"accessorPositions"},{"bufferView":1,"byteOffset":6050160,"componentType":5126,"count":50470,"type":"VEC3","name":"accessorNormals"},{"bufferView":3,"byteOffset":1384320,"componentType":5126,"count":50470,"type":"VEC4","name":"accessorColors"},{"bufferView":2,"byteOffset":2507000,"componentType":5126,"count":50470,"type":"VEC2","name":"accessorUVs"},{"bufferView":2,"byteOffset":2910760,"componentType":5126,"count":50470,"type":"VEC2","name":"accessorUV2s"},{"bufferView":0,"byteOffset":1736184,"componentType":5123,"count":196056,"type":"SCALAR","name":"accessorIndices"},{"bufferView":1,"byteOffset":6655800,"componentType":5126,"count":50470,"max":[3.80909538,0.558046341,14.0742416],"min":[-0.103586756,-0.16874589,9.913331],"type":"VEC3","name":"accessorPositions"},{"bufferView":1,"byteOffset":7261440,"componentType":5126,"count":50470,"type":"VEC3","name":"accessorNormals"},{"bufferView":3,"byteOffset":2191840,"componentType":5126,"count":50470,"type":"VEC4","name":"accessorColors"},{"bufferView":2,"byteOffset":3314520,"componentType":5126,"count":50470,"type":"VEC2","name":"accessorUVs"},{"bufferView":2,"byteOffset":3718280,"componentType":5126,"count":50470,"type":"VEC2","name":"accessorUV2s"},{"bufferView":0,"byteOffset":2128296,"componentType":5123,"count":196056,"type":"SCALAR","name":"accessorIndices"},{"bufferView":1,"byteOffset":7867080,"componentType":5126,"count":50470,"max":[3.81321645,0.5580821,9.680055],"min":[-0.107865393,-0.167535171,6.19067049],"type":"VEC3","name":"accessorPositions"},{"bufferView":1,"byteOffset":8472720,"componentType":5126,"count":50470,"type":"VEC3","name":"accessorNormals"},{"bufferView":3,"byteOffset":2999360,"componentType":5126,"count":50470,"type":"VEC4","name":"accessorColors"},{"bufferView":2,"byteOffset":4122040,"componentType":5126,"count":50470,"type":"VEC2","name":"accessorUVs"},{"bufferView":2,"byteOffset":4525800,"componentType":5126,"count":50470,"type":"VEC2","name":"accessorUV2s"},{"bufferView":0,"byteOffset":2520408,"componentType":5123,"count":196056,"type":"SCALAR","name":"accessorIndices"},{"bufferView":1,"byteOffset":9078360,"componentType":5126,"count":50470,"max":[3.81604815,0.55626,5.957245],"min":[-0.110787712,-0.172639772,2.467202],"type":"VEC3","name":"accessorPositions"},{"bufferView":1,"byteOffset":9684000,"componentType":5126,"count":50470,"type":"VEC3","name":"accessorNormals"},{"bufferView":3,"byteOffset":3806880,"componentType":5126,"count":50470,"type":"VEC4","name":"accessorColors"},{"bufferView":2,"byteOffset":4929560,"componentType":5126,"count":50470,"type":"VEC2","name":"accessorUVs"},{"bufferView":2,"byteOffset":5333320,"componentType":5126,"count":50470,"type":"VEC2","name":"accessorUV2s"},{"bufferView":0,"byteOffset":2912520,"componentType":5123,"count":62646,"type":"SCALAR","name":"accessorIndices"},{"bufferView":1,"byteOffset":10289640,"componentType":5126,"count":27986,"max":[1.94624591,0.4673257,11.0265064],"min":[-1.94624949,-1.82147527,-13.2101288],"type":"VEC3","name":"accessorPositions"},{"bufferView":1,"byteOffset":10625472,"componentType":5126,"count":27986,"type":"VEC3","name":"accessorNormals"},{"bufferView":2,"byteOffset":5737080,"componentType":5126,"count":27986,"type":"VEC2","name":"accessorUVs"},{"bufferView":0,"byteOffset":3037812,"componentType":5123,"count":82386,"type":"SCALAR","name":"accessorIndices"},{"bufferView":1,"byteOffset":10961304,"componentType":5126,"count":34763,"max":[1.96053135,0.350044727,2.85888672],"min":[-1.96053135,-1.82487321,-1.51483345],"type":"VEC3","name":"accessorPositions"},{"bufferView":1,"byteOffset":11378460,"componentType":5126,"count":34763,"type":"VEC3","name":"accessorNormals"},{"bufferView":2,"byteOffset":5960968,"componentType":5126,"count":34763,"type":"VEC2","name":"accessorUVs"}],"bufferViews":[{"buffer":0,"byteLength":3202584,"name":"bufferViewScalar"},{"buffer":0,"byteOffset":3202584,"byteLength":11795616,"byteStride":12,"name":"bufferViewFloatVec3"},{"buffer":0,"byteOffset":14998200,"byteLength":6239072,"byteStride":8,"name":"bufferViewFloatVec2"},{"buffer":0,"byteOffset":21237272,"byteLength":4614400,"byteStride":16,"name":"bufferViewFloatVec4"}],"buffers":[{"uri":"salon.bin","byteLength":25851672}],"materials":[{"pbrMetallicRoughness":{"baseColorTexture":{"index":0},"metallicFactor":0.0,"roughnessFactor":0.1},"name":"INTERIOR"},{"pbrMetallicRoughness":{"baseColorFactor":[1.0,1.0,1.0,0.01],"metallicFactor":0.0,"roughnessFactor":0.0,"metallicRoughnessTexture":{"index":1}},"normalTexture":{"index":2},"occlusionTexture":{"index":1},"emissiveTexture":{"index":3},"alphaMode":"BLEND","name":"GLASSES","extensions":{"ASOBO_material_detail_map":{"UVScale":6.07,"detailColorTexture":{"index":4},"detailNormalTexture":{"index":5}},"ASOBO_material_windshield":{"rainDropScale":1.0,"wiper1State":0.0,"wiper2State":0.0,"wiper3State":0.0,"wiper4State":0.0}},"extras":{"ASOBO_material_code":"Windshield"}},{"pbrMetallicRoughness":{"baseColorTexture":{"index":6},"metallicRoughnessTexture":{"index":7}},"normalTexture":{"index":8},"occlusionTexture":{"index":7},"name":"HublotIn"}],"textures":[{"source":0,"name":"SALON"},{"source":1,"name":"GLASS_DEFAULTDIRT_COMP"},{"source":2,"name":"A320NEO_AIRFRAME_GLASS_NORM"},{"source":3,"name":"GLASS_DETAILMAP02_MASK"},{"source":4,"name":"GLASS_DETAILMAP01_MASK"},{"source":5,"name":"FROST_DETAIL_NORM"},{"source":6,"name":"A320NEO_AIRFRAME_HUBLOTIN_ALBD"},{"source":7,"name":"A320NEO_AIRFRAME_HUBLOTIN_COMP"},{"source":8,"name":"A320NEO_AIRFRAME_HUBLOTIN_NORM"}],"images":[{"uri":"SALON.PNG.DDS"},{"uri":"GLASS_DEFAULTDIRT_COMP.PNG.DDS"},{"uri":"A320NEO_AIRFRAME_GLASS_NORM.PNG.DDS"},{"uri":"GLASS_DETAILMAP02_MASK.PNG.DDS"},{"uri":"GLASS_DETAILMAP01_MASK.PNG.DDS"},{"uri":"FROST_DETAIL_NORM.PNG.DDS"},{"uri":"A320NEO_AIRFRAME_HUBLOTIN_ALBD.PNG.DDS"},{"uri":"A320NEO_AIRFRAME_HUBLOTIN_COMP.PNG.DDS"},{"uri":"A320NEO_AIRFRAME_HUBLOTIN_NORM.PNG.DDS"}]}